# xmcd
#
# Track frame offsets:
#	150
#	15864
#	35873
#	53265
#	73837
#	99265
#	110525
#	123418
#	140671
#	155573
#	170919
#
# Disc length: 2655 seconds
#
# Revision: 0
# Processed by: cddbd v1.5.2PL0 Copyright (c) Steve Scherf et al.
# Submitted via: EZCDAudioConverter 4.0.4.2
#
DISCID=930a5d0b
DTITLE=Albert Castiglia - Big Dog
DYEAR=2016
DGENRE=Blues Rock
TTITLE0=Let The Big Dog Eat 
TTITLE1=Don't Let Them Fool Ya
TTITLE2=Get Your Ass In The Van
TTITLE3=Drowning At The Bottom
TTITLE4=Let's Make Love In The Morning
TTITLE5=What I Like About Miami
TTITLE6=Easy Distance
TTITLE7=Where Did I Go Wrong
TTITLE8=Where The Devil Makes His Deals
TTITLE9=What The Hell Was I Thinking
TTITLE10=Somehow
EXTD=
EXTT0=
EXTT1=
EXTT2=
EXTT3=
EXTT4=
EXTT5=
EXTT6=
EXTT7=
EXTT8=
EXTT9=
EXTT10=
PLAYORDER=
